<svg width="18" height="18" viewBox="0 0 18 18" fill="none" xmlns="http://www.w3.org/2000/svg">
<path fill-rule="evenodd" clip-rule="evenodd" d="M2.60378 6.19078C1.6894 6.19078 0.992326 7.04363 1.14699 7.93651L2.4269 15.3248C2.58356 16.2292 3.38397 16.8783 4.29128 16.8783H13.723C14.6313 16.8783 15.4179 16.2252 15.5852 15.3325C15.5856 15.3299 15.586 15.3274 15.5863 15.3248L16.8651 7.94418V7.94306C17.033 7.04386 16.3255 6.19073 15.4105 6.19073L2.60378 6.19078ZM2.60378 7.31578H15.4105C15.6444 7.31578 15.803 7.50667 15.7599 7.73655C15.7595 7.73912 15.7592 7.74169 15.7588 7.74426L14.4789 15.1282C14.409 15.4945 14.0962 15.7533 13.723 15.7533H4.29128C3.91631 15.7533 3.59763 15.4928 3.53542 15.1337L2.25551 7.74426C2.21404 7.50481 2.36897 7.31578 2.60378 7.31578Z" fill="#565656"/>
<path fill-rule="evenodd" clip-rule="evenodd" d="M6.35891 1.16561C6.28977 1.19203 6.22652 1.23183 6.17279 1.28273C6.11906 1.33363 6.07591 1.39463 6.0458 1.46224L3.7958 6.52474C3.76577 6.59226 3.74933 6.66503 3.74744 6.7389C3.74554 6.81277 3.75822 6.8863 3.78475 6.95527C3.81127 7.02424 3.85113 7.08729 3.90204 7.14085C3.95294 7.19441 4.01391 7.23743 4.08144 7.26742C4.14896 7.29745 4.22173 7.31388 4.2956 7.31578C4.36947 7.31767 4.44299 7.305 4.51196 7.27847C4.58093 7.25195 4.644 7.21209 4.69756 7.16118C4.75112 7.11027 4.79412 7.04931 4.82412 6.98177L7.07412 1.91928C7.10415 1.85176 7.12058 1.77899 7.12247 1.70512C7.12437 1.63125 7.11169 1.55773 7.08517 1.48876C7.05864 1.41979 7.01878 1.35672 6.96788 1.30316C6.91697 1.2496 6.85601 1.20659 6.78847 1.1766C6.65238 1.11624 6.4979 1.11228 6.35891 1.16561Z" fill="#565656"/>
<path fill-rule="evenodd" clip-rule="evenodd" d="M11.6554 1.16563C11.5164 1.1123 11.3619 1.11624 11.2259 1.1766C11.1583 1.20659 11.0974 1.2496 11.0464 1.30316C10.9955 1.35672 10.9557 1.41979 10.9292 1.48876C10.9026 1.55773 10.89 1.63125 10.8918 1.70512C10.8937 1.77899 10.9102 1.85176 10.9402 1.91928L13.1902 6.98177C13.2508 7.11789 13.3629 7.22441 13.5019 7.27796C13.641 7.33151 13.7955 7.32772 13.9318 7.26742C13.9993 7.23743 14.0603 7.19441 14.1112 7.14085C14.1621 7.08729 14.202 7.02424 14.2285 6.95527C14.255 6.8863 14.2677 6.81278 14.2658 6.73891C14.2639 6.66504 14.2475 6.59226 14.2174 6.52474L11.9674 1.46224C11.9069 1.32591 11.7946 1.21922 11.6554 1.16563Z" fill="#565656"/>
<path fill-rule="evenodd" clip-rule="evenodd" d="M9 8.4408C8.85082 8.4408 8.70774 8.50007 8.60225 8.60556C8.49676 8.71105 8.4375 8.85411 8.4375 9.0033V13.5033C8.4375 13.6525 8.49676 13.7955 8.60225 13.901C8.70774 14.0065 8.85082 14.0658 9 14.0658C9.14918 14.0658 9.29226 14.0065 9.39775 13.901C9.50324 13.7955 9.5625 13.6525 9.5625 13.5033V9.0033C9.5625 8.85411 9.50324 8.71105 9.39775 8.60556C9.29226 8.50007 9.14918 8.4408 9 8.4408Z" fill="#565656"/>
<path fill-rule="evenodd" clip-rule="evenodd" d="M6.75 8.4408C6.60082 8.4408 6.45774 8.50007 6.35225 8.60556C6.24676 8.71105 6.1875 8.85411 6.1875 9.0033V13.5033C6.1875 13.6525 6.24676 13.7955 6.35225 13.901C6.45774 14.0065 6.60082 14.0658 6.75 14.0658C6.89918 14.0658 7.04226 14.0065 7.14775 13.901C7.25324 13.7955 7.3125 13.6525 7.3125 13.5033V9.0033C7.3125 8.85411 7.25324 8.71105 7.14775 8.60556C7.04226 8.50007 6.89918 8.4408 6.75 8.4408Z" fill="#565656"/>
<path fill-rule="evenodd" clip-rule="evenodd" d="M11.25 8.4408C11.1008 8.4408 10.9577 8.50007 10.8523 8.60556C10.7468 8.71105 10.6875 8.85411 10.6875 9.0033V13.5033C10.6875 13.6525 10.7468 13.7955 10.8523 13.901C10.9577 14.0065 11.1008 14.0658 11.25 14.0658C11.3992 14.0658 11.5423 14.0065 11.6477 13.901C11.7532 13.7955 11.8125 13.6525 11.8125 13.5033V9.0033C11.8125 8.85411 11.7532 8.71105 11.6477 8.60556C11.5423 8.50007 11.3992 8.4408 11.25 8.4408Z" fill="#565656"/>
</svg>
