<svg width="18" height="18" viewBox="0 0 18 18" fill="none" xmlns="http://www.w3.org/2000/svg">
<g clip-path="url(#clip0_17_20)">
<path d="M12.8475 10.6762C12.6338 10.5749 11.61 10.0687 11.4188 9.98992C11.2275 9.91117 11.0925 9.88867 10.9463 10.1024C10.8 10.3162 10.4063 10.7774 10.2825 10.9237C10.1588 11.0699 10.0463 11.0812 9.83251 10.9237C9.21857 10.6773 8.65156 10.3272 8.15626 9.88867C7.70789 9.46653 7.32831 8.97686 7.03126 8.43742C6.90751 8.23492 7.03126 8.12242 7.12126 8.00992C7.21126 7.89742 7.32376 7.77367 7.43626 7.64992C7.51853 7.5429 7.58659 7.42567 7.63876 7.30117C7.66667 7.24327 7.68116 7.17982 7.68116 7.11554C7.68116 7.05127 7.66667 6.98782 7.63876 6.92992C7.63876 6.82867 7.16626 5.80492 6.98626 5.38867C6.80626 4.97242 6.64876 5.02867 6.52501 5.02867H6.07501C5.86064 5.03703 5.65835 5.13008 5.51251 5.28742C5.27711 5.51205 5.09065 5.78288 4.96482 6.08295C4.83899 6.38301 4.7765 6.70583 4.78126 7.03117C4.8388 7.8299 5.13249 8.59349 5.62501 9.22492C6.5288 10.5675 7.76529 11.6529 9.21376 12.3749C9.70876 12.5887 10.0913 12.7124 10.395 12.8137C10.8215 12.9426 11.2724 12.9696 11.7113 12.8924C12.0027 12.8333 12.279 12.7149 12.5228 12.5446C12.7666 12.3743 12.9729 12.1557 13.1288 11.9024C13.2585 11.5896 13.3012 11.2475 13.2525 10.9124C13.1963 10.8337 13.0613 10.7774 12.8475 10.6762Z" fill="#565656"/>
<path d="M14.9513 3.01504C14.1732 2.22966 13.2458 1.60803 12.2237 1.18682C11.2016 0.765609 10.1055 0.553343 9.00001 0.562543C7.53559 0.570206 6.09881 0.961954 4.83317 1.69866C3.56753 2.43537 2.51732 3.49124 1.78745 4.76084C1.05758 6.03043 0.673578 7.4693 0.673808 8.93374C0.674037 10.3982 1.05849 11.8369 1.78876 13.1063L0.663757 17.4375L5.09626 16.3125C6.32164 16.9793 7.69495 17.3275 9.09001 17.325H9.00001C10.6627 17.3359 12.2909 16.8513 13.677 15.933C15.0631 15.0148 16.1444 13.7045 16.7829 12.1693C17.4213 10.6341 17.5881 8.94346 17.2619 7.31308C16.9357 5.6827 16.1313 4.18642 14.9513 3.01504ZM9.00001 15.885C7.75188 15.886 6.52696 15.5477 5.45626 14.9063L5.20876 14.76L2.57626 15.4463L3.27376 12.8813L3.11626 12.6225C2.21778 11.1756 1.8817 9.4492 2.17176 7.77089C2.46183 6.09257 3.35787 4.57911 4.68987 3.51768C6.02187 2.45624 7.69716 1.92066 9.39788 2.01258C11.0986 2.10449 12.7064 2.81749 13.9163 4.01629C14.5649 4.65967 15.0789 5.4257 15.4285 6.26975C15.7781 7.11379 15.9562 8.01897 15.9525 8.93254C15.9495 10.7755 15.2161 12.5422 13.9129 13.8454C12.6097 15.1486 10.843 15.8821 9.00001 15.885Z" fill="#565656"/>
</g>
<defs>
<clipPath id="clip0_17_20">
<rect width="18" height="18" fill="white"/>
</clipPath>
</defs>
</svg>
