<svg width="20" height="20" viewBox="0 0 20 20" fill="none" xmlns="http://www.w3.org/2000/svg">
<path d="M9.99998 6.58345C9.32423 6.58345 8.66365 6.78384 8.1018 7.15926C7.53993 7.53469 7.10201 8.06831 6.84341 8.69261C6.58481 9.31694 6.51715 10.0039 6.64898 10.6667C6.78081 11.3294 7.10622 11.9383 7.58405 12.4161C8.06187 12.8939 8.67065 13.2193 9.3334 13.3511C9.99623 13.4829 10.6831 13.4153 11.3075 13.1567C11.9318 12.8981 12.4654 12.4602 12.8408 11.8984C13.2163 11.3364 13.4166 10.6759 13.4166 10.0001C13.4177 9.55111 13.3301 9.10636 13.1588 8.69136C12.9875 8.27629 12.7359 7.89921 12.4184 7.58172C12.1009 7.26423 11.7238 7.01261 11.3088 6.84129C10.8937 6.66998 10.449 6.58236 9.99998 6.58345ZM9.99998 12.2251C9.5599 12.2251 9.12973 12.0946 8.76382 11.8501C8.39798 11.6057 8.11277 11.2582 7.94437 10.8516C7.77596 10.445 7.7319 9.99769 7.81775 9.56602C7.9036 9.13444 8.11551 8.73794 8.42665 8.42677C8.73782 8.11563 9.13432 7.90372 9.5659 7.81787C9.99757 7.73202 10.4449 7.77608 10.8515 7.94449C11.2581 8.11289 11.6056 8.39811 11.85 8.76394C12.0945 9.12986 12.225 9.56002 12.225 10.0001C12.225 10.5902 11.9906 11.1562 11.5733 11.5734C11.1561 11.9907 10.5901 12.2251 9.99998 12.2251ZM14.3583 6.44178C14.3583 6.60661 14.3095 6.76772 14.2179 6.90476C14.1263 7.0418 13.9961 7.14861 13.8439 7.21168C13.6916 7.27476 13.5241 7.29126 13.3624 7.25911C13.2007 7.22695 13.0523 7.14758 12.9357 7.03104C12.8192 6.9145 12.7398 6.76601 12.7076 6.60436C12.6755 6.44271 12.692 6.27516 12.7551 6.12288C12.8181 5.97061 12.925 5.84046 13.062 5.7489C13.1991 5.65732 13.3601 5.60845 13.525 5.60845C13.746 5.60845 13.958 5.69625 14.1142 5.85253C14.2706 6.00881 14.3583 6.22077 14.3583 6.44178ZM16.6166 7.27511C16.6409 6.23914 16.2545 5.23561 15.5416 4.48345C14.7935 3.76152 13.7895 3.36591 12.75 3.38345C11.6666 3.33345 8.33332 3.33345 7.24999 3.38345C6.21433 3.36102 5.21147 3.74721 4.45833 4.45845C3.74553 5.21061 3.35909 6.21414 3.38333 7.25011C3.33333 8.33344 3.33333 11.6668 3.38333 12.7501C3.35909 13.7861 3.74553 14.7896 4.45833 15.5418C5.21147 16.253 6.21433 16.6392 7.24999 16.6168C8.34998 16.6834 11.65 16.6834 12.75 16.6168C13.786 16.641 14.7895 16.2546 15.5416 15.5418C16.2545 14.7896 16.6409 13.7861 16.6166 12.7501C16.6666 11.6668 16.6666 8.33344 16.6166 7.25011V7.27511ZM15.2 13.9418C15.0868 14.2284 14.9161 14.4887 14.6981 14.7066C14.4802 14.9245 14.22 15.0953 13.9333 15.2084C12.6396 15.47 11.3171 15.5597 9.99998 15.4751C8.68565 15.5598 7.36583 15.4701 6.07499 15.2084C5.78838 15.0953 5.52806 14.9245 5.31018 14.7066C5.09228 14.4887 4.92148 14.2284 4.80833 13.9418C4.45833 13.0584 4.53333 10.9751 4.53333 10.0084C4.53333 9.04177 4.45833 6.95011 4.80833 6.07511C4.91828 5.78567 5.08788 5.52259 5.30609 5.30293C5.52431 5.08328 5.78628 4.91196 6.07499 4.80011C7.36583 4.53843 8.68565 4.44876 9.99998 4.53345C11.3171 4.44891 12.6396 4.53857 13.9333 4.80011C14.22 4.91326 14.4802 5.08407 14.6981 5.30196C14.9161 5.51985 15.0868 5.78017 15.2 6.06678C15.55 6.95011 15.4666 9.03344 15.4666 10.0001C15.4666 10.9668 15.55 13.0584 15.2 13.9334V13.9418Z" fill="#565656"/>
</svg>
