<svg width="18" height="18" viewBox="0 0 18 18" fill="none" xmlns="http://www.w3.org/2000/svg">
<path d="M2.54994 2.55L2.2835 2.28608L2.28666 2.28296L2.54994 2.55ZM2.54994 15.45L2.28601 15.7164L2.2829 15.7133L2.54994 15.45ZM15.4499 15.45L15.7164 15.7139L15.7132 15.7171L15.4499 15.45ZM15.4499 2.55L15.7138 2.28356L15.717 2.28672L15.4499 2.55ZM4.02994 6.065L3.65501 6.07269C3.65295 5.97192 3.69153 5.87456 3.76207 5.80257C3.8326 5.73057 3.92914 5.69 4.02994 5.69V6.065ZM9.67993 12.305H10.0549C10.0549 12.5121 9.88701 12.68 9.67993 12.68V12.305ZM9.67993 10.075H9.30493C9.30493 9.96908 9.34971 9.86813 9.42823 9.79703C9.50676 9.72593 9.61168 9.69135 9.71713 9.70185L9.67993 10.075ZM12.265 12.305V12.68C12.1019 12.68 11.9576 12.5747 11.9079 12.4195L12.265 12.305ZM14.0399 12.305L14.4019 12.2071C14.4324 12.3198 14.4087 12.4402 14.3377 12.5329C14.2667 12.6256 14.1567 12.68 14.0399 12.68V12.305ZM11.4749 9.17498L11.3078 9.51075C11.1856 9.44985 11.1061 9.32737 11.1003 9.19095C11.0944 9.05452 11.1633 8.92575 11.2799 8.85473L11.4749 9.17498ZM13.6649 6.06V5.685C13.7776 5.685 13.8842 5.73563 13.9555 5.82289C14.0267 5.91014 14.0549 6.0248 14.0323 6.13514L13.6649 6.06ZM12.055 6.06L11.6941 5.95814C11.7397 5.79657 11.887 5.685 12.055 5.685V6.06ZM9.67993 8.52997L9.71968 8.90287C9.61393 8.9142 9.50833 8.88 9.42921 8.8089C9.35008 8.73773 9.30493 8.6364 9.30493 8.52997H9.67993ZM9.67993 6.065V5.69C9.88701 5.69 10.0549 5.8579 10.0549 6.065H9.67993ZM8.06496 6.065H7.68996C7.68996 5.8579 7.85781 5.69 8.06496 5.69V6.065ZM8.06496 10.385H8.43996C8.43996 10.5004 8.38671 10.6095 8.29573 10.6806C8.20468 10.7516 8.08603 10.7768 7.97398 10.7488L8.06496 10.385ZM5.74993 6.065V5.69C5.95423 5.69 6.12094 5.85353 6.12487 6.05779L5.74993 6.065ZM1.12494 8.7C1.12494 7.01305 1.12415 5.71091 1.2595 4.69963C1.3963 3.67756 1.67819 2.89715 2.2835 2.28608L2.81635 2.8139C2.37167 3.26282 2.12858 3.85993 2.00287 4.79912C1.87573 5.74909 1.87494 6.99195 1.87494 8.7H1.12494ZM1.12494 9.3V8.7H1.87494V9.3H1.12494ZM2.2829 15.7133C1.67818 15.0999 1.3963 14.3188 1.2595 13.2966C1.12415 12.2854 1.12494 10.9845 1.12494 9.3H1.87494C1.87494 11.0055 1.87573 12.2471 2.00287 13.1972C2.12857 14.1362 2.3717 14.7351 2.81698 15.1868L2.2829 15.7133ZM8.69991 16.875C7.01299 16.875 5.71085 16.8758 4.69957 16.7405C3.6775 16.6037 2.89709 16.3217 2.28601 15.7164L2.81384 15.1836C3.26276 15.6283 3.85987 15.8713 4.79906 15.997C5.74903 16.1242 6.99189 16.125 8.69991 16.125V16.875ZM9.29991 16.875H8.69991V16.125H9.29991V16.875ZM15.7132 15.7171C15.0999 16.3218 14.3187 16.6037 13.2966 16.7405C12.2853 16.8758 10.9844 16.875 9.29991 16.875V16.125C11.0055 16.125 12.2471 16.1242 13.1971 15.997C14.1362 15.8713 14.735 15.6282 15.1867 15.1829L15.7132 15.7171ZM16.8749 9.3C16.8749 10.987 16.8757 12.2891 16.7404 13.3004C16.6036 14.3225 16.3217 15.1028 15.7164 15.7139L15.1835 15.1861C15.6282 14.7372 15.8713 14.1401 15.997 13.2009C16.1242 12.2509 16.1249 11.008 16.1249 9.3H16.8749ZM16.8749 8.7V9.3H16.1249V8.7H16.8749ZM15.717 2.28672C16.3217 2.90009 16.6036 3.68126 16.7404 4.70338C16.8757 5.71466 16.8749 7.01553 16.8749 8.7H16.1249C16.1249 6.99447 16.1242 5.75285 15.997 4.80287C15.8713 3.86375 15.6282 3.26492 15.1829 2.81328L15.717 2.28672ZM9.29991 1.125C10.9869 1.125 12.289 1.12421 13.3003 1.25957C14.3224 1.39636 15.1027 1.67825 15.7138 2.28356L15.1861 2.81642C14.7371 2.37173 14.14 2.12864 13.2008 2.00294C12.2509 1.87579 11.008 1.875 9.29991 1.875V1.125ZM8.69991 1.125H9.29991V1.875H8.69991V1.125ZM2.28666 2.28296C2.90002 1.67824 3.68119 1.39637 4.70332 1.25957C5.71459 1.12421 7.01547 1.125 8.69991 1.125V1.875C6.99441 1.875 5.75278 1.87579 4.80281 2.00294C3.86368 2.12863 3.26485 2.37176 2.81322 2.81704L2.28666 2.28296ZM9.47991 12.68C7.67826 12.68 6.22533 12.0599 5.21846 10.8924C4.21906 9.73365 3.69617 8.07892 3.65501 6.07269L4.40486 6.05731C4.4437 7.95105 4.93581 9.41632 5.78641 10.4026C6.62954 11.3801 7.86163 11.93 9.47991 11.93V12.68ZM9.48493 12.68H9.47991V11.93H9.48493V12.68ZM9.67993 12.68H9.48493V11.93H9.67993V12.68ZM10.0549 10.075V12.305H9.30493V10.075H10.0549ZM11.9079 12.4195C11.5644 11.3484 10.7216 10.5556 9.64273 10.4482L9.71713 9.70185C11.1482 9.84442 12.2055 10.8916 12.622 12.1905L11.9079 12.4195ZM14.0399 12.68H12.265V11.93H14.0399V12.68ZM13.3831 10.2273C13.8588 10.8078 14.206 11.4826 14.4019 12.2071L13.678 12.4029C13.5097 11.7807 13.2115 11.2012 12.8029 10.7027L13.3831 10.2273ZM11.642 8.83927C12.3139 9.1737 12.9073 9.6468 13.3831 10.2273L12.8029 10.7027C12.3944 10.2042 11.8849 9.79792 11.3078 9.51075L11.642 8.83927ZM13.2014 8.06145C12.7949 8.63963 12.2736 9.12773 11.67 9.4953L11.2799 8.85473C11.7955 8.54078 12.2407 8.12385 12.5878 7.63013L13.2014 8.06145ZM14.0323 6.13514C13.8907 6.82754 13.6078 7.4833 13.2014 8.06145L12.5878 7.63013C12.935 7.1363 13.1766 6.57623 13.2976 5.98486L14.0323 6.13514ZM12.055 5.685H13.6649V6.435H12.055V5.685ZM9.64018 8.15715C10.0126 8.1174 10.4419 7.8747 10.8337 7.46236C11.2204 7.05519 11.5363 6.51704 11.6941 5.95814L12.4159 6.16187C12.2236 6.84296 11.8444 7.48731 11.3775 7.97888C10.9154 8.46525 10.3324 8.83755 9.71968 8.90287L9.64018 8.15715ZM10.0549 6.065V8.52997H9.30493V6.065H10.0549ZM8.06496 5.69H9.67993V6.44H8.06496V5.69ZM7.68996 10.385V6.065H8.43996V10.385H7.68996ZM6.12487 6.05779C6.17788 8.81445 7.3765 9.82635 8.15586 10.0212L7.97398 10.7488C6.75338 10.4437 5.43199 9.03555 5.37501 6.07221L6.12487 6.05779ZM4.02994 5.69H5.74993V6.44H4.02994V5.69Z" fill="#565656"/>
</svg>
